<svg xmlns="http://www.w3.org/2000/svg" viewBox="0 0 16 16" fill="none" stroke="currentColor" stroke-width="1.2">
  <!-- Database top cylinder -->
  <path d="M2 4 C 2 2.5, 14 2.5, 14 4 C 14 5.5, 2 5.5, 2 4 Z" />
  
  <!-- Database middle section -->
  <path d="M2 4 L2 8 C 2 9.5, 14 9.5, 14 8 L14 4" stroke-linecap="round" />
  <path d="M2 8 C 2 9.5, 14 9.5, 14 8" stroke-linecap="round" />
  
  <!-- Database bottom section -->
  <path d="M2 8 L2 12 C 2 13.5, 14 13.5, 14 12 L14 8" stroke-linecap="round" />
  <path d="M2 12 C 2 13.5, 14 13.5, 14 12" stroke-linecap="round" />
  
  <!-- Heartbeat pulse on top (health monitor theme) -->
  <path d="M4.5 4 L6 4 L6.5 3 L7 5 L7.5 4 L9.5 4" stroke-linecap="round" stroke-linejoin="round" />
</svg>
